<svg xmlns="http://www.w3.org/2000/svg" xmlns:xlink="http://www.w3.org/1999/xlink" width="500" zoomAndPan="magnify" viewBox="0 0 375 374.999991" height="500" preserveAspectRatio="xMidYMid meet" version="1.0"><defs><clipPath id="3129d758dc"><path d="M 63.234375 45.472656 L 341.457031 45.472656 L 341.457031 323.699219 L 63.234375 323.699219 Z M 63.234375 45.472656 " clip-rule="nonzero"/></clipPath><clipPath id="f5dac0f1b6"><path d="M 202.34375 45.472656 C 125.515625 45.472656 63.234375 107.757812 63.234375 184.585938 C 63.234375 261.414062 125.515625 323.699219 202.34375 323.699219 C 279.171875 323.699219 341.457031 261.414062 341.457031 184.585938 C 341.457031 107.757812 279.171875 45.472656 202.34375 45.472656 Z M 202.34375 45.472656 " clip-rule="nonzero"/></clipPath><clipPath id="5fab5ffddd"><path d="M 70.558594 46.222656 L 348.78125 46.222656 L 348.78125 324.449219 L 70.558594 324.449219 Z M 70.558594 46.222656 " clip-rule="nonzero"/></clipPath><clipPath id="8e1820366c"><path d="M 209.671875 46.222656 C 132.84375 46.222656 70.558594 108.507812 70.558594 185.335938 C 70.558594 262.164062 132.84375 324.449219 209.671875 324.449219 C 286.5 324.449219 348.78125 262.164062 348.78125 185.335938 C 348.78125 108.507812 286.5 46.222656 209.671875 46.222656 Z M 209.671875 46.222656 " clip-rule="nonzero"/></clipPath><clipPath id="b11ee9daf1"><path d="M 78.800781 83.238281 L 340.550781 83.238281 L 340.550781 194.988281 L 78.800781 194.988281 Z M 78.800781 83.238281 " clip-rule="nonzero"/></clipPath><clipPath id="7c310190c5"><path d="M 236.578125 107.527344 L 299.886719 107.527344 L 299.886719 170.835938 L 236.578125 170.835938 Z M 236.578125 107.527344 " clip-rule="nonzero"/></clipPath><clipPath id="e24f9481dc"><path d="M 281.34375 107.527344 L 255.121094 107.527344 L 236.578125 126.070312 L 236.578125 152.296875 L 255.121094 170.835938 L 281.34375 170.835938 L 299.886719 152.296875 L 299.886719 126.070312 Z M 281.34375 107.527344 " clip-rule="nonzero"/></clipPath><clipPath id="a95f314ab9"><path d="M 255.777344 126.730469 L 280.6875 126.730469 L 280.6875 151.636719 L 255.777344 151.636719 Z M 255.777344 126.730469 " clip-rule="nonzero"/></clipPath><clipPath id="01820d986a"><path d="M 268.234375 126.730469 C 261.355469 126.730469 255.777344 132.304688 255.777344 139.183594 C 255.777344 146.0625 261.355469 151.636719 268.234375 151.636719 C 275.109375 151.636719 280.6875 146.0625 280.6875 139.183594 C 280.6875 132.304688 275.109375 126.730469 268.234375 126.730469 Z M 268.234375 126.730469 " clip-rule="nonzero"/></clipPath><clipPath id="f83a4160c7"><path d="M 161.59375 195.46875 L 266.53125 195.46875 L 266.53125 250.632812 L 161.59375 250.632812 Z M 161.59375 195.46875 " clip-rule="nonzero"/></clipPath><clipPath id="847e7f4539"><path d="M 251.253906 195.46875 C 253.238281 195.46875 255.21875 195.882812 257.199219 196.710938 C 264.964844 200.011719 268.597656 208.929688 265.292969 216.695312 C 256.621094 237.339844 236.554688 250.632812 214.175781 250.632812 C 191.796875 250.632812 171.730469 237.339844 162.976562 216.695312 C 159.671875 208.929688 163.308594 199.929688 171.070312 196.710938 C 178.832031 193.40625 187.832031 197.039062 191.054688 204.800781 C 195.019531 214.050781 204.101562 220.078125 214.175781 220.078125 C 224.25 220.078125 233.253906 214.050781 237.214844 204.800781 C 239.609375 199.019531 245.308594 195.46875 251.253906 195.46875 Z M 251.253906 195.46875 " clip-rule="nonzero"/></clipPath><clipPath id="0b88d6511e"><path d="M 140.875 289.117188 L 183.289062 289.117188 L 183.289062 361.183594 L 140.875 361.183594 Z M 140.875 289.117188 " clip-rule="nonzero"/></clipPath><clipPath id="6666311103"><path d="M 155.015625 359.960938 C 157.1875 360.695312 159.65625 361.175781 162.082031 361.175781 C 164.507812 361.175781 166.839844 360.761719 168.992188 360.03125 C 169.039062 360.007812 169.082031 360.007812 169.128906 359.984375 C 177.203125 357.058594 183.152344 349.324219 183.265625 340.226562 L 183.265625 289.117188 L 140.875 289.117188 L 140.875 340.1875 C 140.992188 349.371094 146.847656 357.101562 155.015625 359.960938 Z M 155.015625 359.960938 " clip-rule="nonzero"/></clipPath><clipPath id="b080d589d3"><path d="M 224.125 297.710938 L 266.539062 297.710938 L 266.539062 361.332031 L 224.125 361.332031 Z M 224.125 297.710938 " clip-rule="nonzero"/></clipPath><clipPath id="db6b41767b"><path d="M 238.261719 359.960938 C 240.4375 360.695312 242.90625 361.175781 245.332031 361.175781 C 247.757812 361.175781 250.089844 360.761719 252.238281 360.03125 C 252.285156 360.007812 252.332031 360.007812 252.378906 359.984375 C 260.453125 357.058594 266.398438 349.324219 266.515625 340.253906 L 266.515625 297.710938 L 224.125 297.710938 L 224.125 340.21875 C 224.238281 349.371094 230.09375 357.101562 238.261719 359.960938 Z M 238.261719 359.960938 " clip-rule="nonzero"/></clipPath><clipPath id="ebaff2baa1"><path d="M 149.628906 329.441406 L 192.046875 329.441406 L 192.046875 360.828125 L 149.628906 360.828125 Z M 149.628906 329.441406 " clip-rule="nonzero"/></clipPath><clipPath id="a182e896d4"><path d="M 170.835938 329.441406 C 159.125 329.441406 149.628906 336.46875 149.628906 345.136719 C 149.628906 353.800781 159.125 360.828125 170.835938 360.828125 C 182.546875 360.828125 192.042969 353.800781 192.042969 345.136719 C 192.042969 336.46875 182.546875 329.441406 170.835938 329.441406 Z M 170.835938 329.441406 " clip-rule="nonzero"/></clipPath><clipPath id="1c326cd2e9"><path d="M 236.578125 329.789062 L 278.996094 329.789062 L 278.996094 361.175781 L 236.578125 361.175781 Z M 236.578125 329.789062 " clip-rule="nonzero"/></clipPath><clipPath id="ef8bda9558"><path d="M 257.785156 329.789062 C 246.074219 329.789062 236.578125 336.816406 236.578125 345.480469 C 236.578125 354.148438 246.074219 361.175781 257.785156 361.175781 C 269.496094 361.175781 278.992188 354.148438 278.992188 345.480469 C 278.992188 336.816406 269.496094 329.789062 257.785156 329.789062 Z M 257.785156 329.789062 " clip-rule="nonzero"/></clipPath><clipPath id="9d08b355dd"><path d="M 25 178 L 93 178 L 93 237 L 25 237 Z M 25 178 " clip-rule="nonzero"/></clipPath><clipPath id="70179f30ea"><path d="M 25.589844 224.90625 L 83.203125 178.839844 L 92.253906 190.160156 L 34.640625 236.226562 Z M 25.589844 224.90625 " clip-rule="nonzero"/></clipPath><clipPath id="fb7d9cbb1f"><path d="M 25.589844 224.90625 L 83.183594 178.859375 L 92.234375 190.175781 L 34.640625 236.226562 Z M 25.589844 224.90625 " clip-rule="nonzero"/></clipPath><clipPath id="6e0cbe5327"><path d="M 59 31 L 146 31 L 146 115 L 59 115 Z M 59 31 " clip-rule="nonzero"/></clipPath><clipPath id="afa0f773de"><path d="M 9.460938 81.390625 L 123.4375 -16.125 L 175.121094 44.28125 L 61.144531 141.796875 Z M 9.460938 81.390625 " clip-rule="nonzero"/></clipPath><clipPath id="9fd5d4c810"><path d="M 9.460938 81.390625 L 123.4375 -16.125 L 175.121094 44.28125 L 61.144531 141.796875 Z M 9.460938 81.390625 " clip-rule="nonzero"/></clipPath><clipPath id="17b6622080"><path d="M 9.460938 81.390625 L 123.4375 -16.125 L 175.121094 44.28125 L 61.144531 141.796875 Z M 9.460938 81.390625 " clip-rule="nonzero"/></clipPath><clipPath id="76f55f23fe"><path d="M 57 29 L 148 29 L 148 117 L 57 117 Z M 57 29 " clip-rule="nonzero"/></clipPath><clipPath id="92ca87f07e"><path d="M 9.460938 81.390625 L 123.4375 -16.125 L 175.121094 44.28125 L 61.144531 141.796875 Z M 9.460938 81.390625 " clip-rule="nonzero"/></clipPath><clipPath id="9e4d631009"><path d="M 9.460938 81.390625 L 123.4375 -16.125 L 175.121094 44.28125 L 61.144531 141.796875 Z M 9.460938 81.390625 " clip-rule="nonzero"/></clipPath><clipPath id="7914815d4f"><path d="M 9.460938 81.390625 L 123.4375 -16.125 L 175.121094 44.28125 L 61.144531 141.796875 Z M 9.460938 81.390625 " clip-rule="nonzero"/></clipPath><clipPath id="6569c09aaf"><path d="M 83 42 L 95 42 L 95 56 L 83 56 Z M 83 42 " clip-rule="nonzero"/></clipPath><clipPath id="b238f5819b"><path d="M 9.460938 81.390625 L 123.4375 -16.125 L 175.121094 44.28125 L 61.144531 141.796875 Z M 9.460938 81.390625 " clip-rule="nonzero"/></clipPath><clipPath id="652a233f7d"><path d="M 9.460938 81.390625 L 123.4375 -16.125 L 175.121094 44.28125 L 61.144531 141.796875 Z M 9.460938 81.390625 " clip-rule="nonzero"/></clipPath><clipPath id="ceb615c440"><path d="M 9.460938 81.390625 L 123.4375 -16.125 L 175.121094 44.28125 L 61.144531 141.796875 Z M 9.460938 81.390625 " clip-rule="nonzero"/></clipPath><clipPath id="2a355e5e9f"><path d="M 81 41 L 96 41 L 96 57 L 81 57 Z M 81 41 " clip-rule="nonzero"/></clipPath><clipPath id="0cce95c289"><path d="M 9.460938 81.390625 L 123.4375 -16.125 L 175.121094 44.28125 L 61.144531 141.796875 Z M 9.460938 81.390625 " clip-rule="nonzero"/></clipPath><clipPath id="1d9b1ca36b"><path d="M 9.460938 81.390625 L 123.4375 -16.125 L 175.121094 44.28125 L 61.144531 141.796875 Z M 9.460938 81.390625 " clip-rule="nonzero"/></clipPath><clipPath id="17b6d96bc5"><path d="M 9.460938 81.390625 L 123.4375 -16.125 L 175.121094 44.28125 L 61.144531 141.796875 Z M 9.460938 81.390625 " clip-rule="nonzero"/></clipPath><clipPath id="c8f34de0dc"><path d="M 118 21 L 131 21 L 131 33 L 118 33 Z M 118 21 " clip-rule="nonzero"/></clipPath><clipPath id="84a1c0705e"><path d="M 9.460938 81.390625 L 123.4375 -16.125 L 175.121094 44.28125 L 61.144531 141.796875 Z M 9.460938 81.390625 " clip-rule="nonzero"/></clipPath><clipPath id="04dd84e47d"><path d="M 9.460938 81.390625 L 123.4375 -16.125 L 175.121094 44.28125 L 61.144531 141.796875 Z M 9.460938 81.390625 " clip-rule="nonzero"/></clipPath><clipPath id="a9f9a8a1b4"><path d="M 9.460938 81.390625 L 123.4375 -16.125 L 175.121094 44.28125 L 61.144531 141.796875 Z M 9.460938 81.390625 " clip-rule="nonzero"/></clipPath><clipPath id="f088c5d585"><path d="M 117 20 L 133 20 L 133 34 L 117 34 Z M 117 20 " clip-rule="nonzero"/></clipPath><clipPath id="be2f002283"><path d="M 9.460938 81.390625 L 123.4375 -16.125 L 175.121094 44.28125 L 61.144531 141.796875 Z M 9.460938 81.390625 " clip-rule="nonzero"/></clipPath><clipPath id="e7038ba248"><path d="M 9.460938 81.390625 L 123.4375 -16.125 L 175.121094 44.28125 L 61.144531 141.796875 Z M 9.460938 81.390625 " clip-rule="nonzero"/></clipPath><clipPath id="ab086c7ea7"><path d="M 9.460938 81.390625 L 123.4375 -16.125 L 175.121094 44.28125 L 61.144531 141.796875 Z M 9.460938 81.390625 " clip-rule="nonzero"/></clipPath><clipPath id="3205da659e"><path d="M 51 81 L 61 81 L 61 94 L 51 94 Z M 51 81 " clip-rule="nonzero"/></clipPath><clipPath id="d9e47985cc"><path d="M 9.460938 81.390625 L 123.4375 -16.125 L 175.121094 44.28125 L 61.144531 141.796875 Z M 9.460938 81.390625 " clip-rule="nonzero"/></clipPath><clipPath id="d597a6281f"><path d="M 9.460938 81.390625 L 123.4375 -16.125 L 175.121094 44.28125 L 61.144531 141.796875 Z M 9.460938 81.390625 " clip-rule="nonzero"/></clipPath><clipPath id="3118132093"><path d="M 9.460938 81.390625 L 123.4375 -16.125 L 175.121094 44.28125 L 61.144531 141.796875 Z M 9.460938 81.390625 " clip-rule="nonzero"/></clipPath><clipPath id="2b1feed92c"><path d="M 49 79 L 63 79 L 63 95 L 49 95 Z M 49 79 " clip-rule="nonzero"/></clipPath><clipPath id="cdb64f25fc"><path d="M 9.460938 81.390625 L 123.4375 -16.125 L 175.121094 44.28125 L 61.144531 141.796875 Z M 9.460938 81.390625 " clip-rule="nonzero"/></clipPath><clipPath id="5c64fde2c2"><path d="M 9.460938 81.390625 L 123.4375 -16.125 L 175.121094 44.28125 L 61.144531 141.796875 Z M 9.460938 81.390625 " clip-rule="nonzero"/></clipPath><clipPath id="3d9779c07c"><path d="M 9.460938 81.390625 L 123.4375 -16.125 L 175.121094 44.28125 L 61.144531 141.796875 Z M 9.460938 81.390625 " clip-rule="nonzero"/></clipPath><clipPath id="f22d7b9d91"><path d="M 39 105 L 55 105 L 55 117 L 39 117 Z M 39 105 " clip-rule="nonzero"/></clipPath><clipPath id="1fe3702116"><path d="M 9.460938 81.390625 L 123.4375 -16.125 L 175.121094 44.28125 L 61.144531 141.796875 Z M 9.460938 81.390625 " clip-rule="nonzero"/></clipPath><clipPath id="3735b8705f"><path d="M 9.460938 81.390625 L 123.4375 -16.125 L 175.121094 44.28125 L 61.144531 141.796875 Z M 9.460938 81.390625 " clip-rule="nonzero"/></clipPath><clipPath id="aebbea788c"><path d="M 9.460938 81.390625 L 123.4375 -16.125 L 175.121094 44.28125 L 61.144531 141.796875 Z M 9.460938 81.390625 " clip-rule="nonzero"/></clipPath><clipPath id="120e03cf7a"><path d="M 29 82 L 43 82 L 43 87 L 29 87 Z M 29 82 " clip-rule="nonzero"/></clipPath><clipPath id="a25b1d9abd"><path d="M 9.460938 81.390625 L 123.4375 -16.125 L 175.121094 44.28125 L 61.144531 141.796875 Z M 9.460938 81.390625 " clip-rule="nonzero"/></clipPath><clipPath id="a43dffeb83"><path d="M 9.460938 81.390625 L 123.4375 -16.125 L 175.121094 44.28125 L 61.144531 141.796875 Z M 9.460938 81.390625 " clip-rule="nonzero"/></clipPath><clipPath id="318121c6d0"><path d="M 9.460938 81.390625 L 123.4375 -16.125 L 175.121094 44.28125 L 61.144531 141.796875 Z M 9.460938 81.390625 " clip-rule="nonzero"/></clipPath><clipPath id="b0f5f81535"><path d="M 52 47 L 64 47 L 64 58 L 52 58 Z M 52 47 " clip-rule="nonzero"/></clipPath><clipPath id="d7063da4ac"><path d="M 9.460938 81.390625 L 123.4375 -16.125 L 175.121094 44.28125 L 61.144531 141.796875 Z M 9.460938 81.390625 " clip-rule="nonzero"/></clipPath><clipPath id="a447f4d0a3"><path d="M 9.460938 81.390625 L 123.4375 -16.125 L 175.121094 44.28125 L 61.144531 141.796875 Z M 9.460938 81.390625 " clip-rule="nonzero"/></clipPath><clipPath id="7a75c5593a"><path d="M 9.460938 81.390625 L 123.4375 -16.125 L 175.121094 44.28125 L 61.144531 141.796875 Z M 9.460938 81.390625 " clip-rule="nonzero"/></clipPath><clipPath id="90f7ecb441"><path d="M 83 18 L 92 18 L 92 31 L 83 31 Z M 83 18 " clip-rule="nonzero"/></clipPath><clipPath id="2106572fe7"><path d="M 9.460938 81.390625 L 123.4375 -16.125 L 175.121094 44.28125 L 61.144531 141.796875 Z M 9.460938 81.390625 " clip-rule="nonzero"/></clipPath><clipPath id="da5dbfbfe3"><path d="M 9.460938 81.390625 L 123.4375 -16.125 L 175.121094 44.28125 L 61.144531 141.796875 Z M 9.460938 81.390625 " clip-rule="nonzero"/></clipPath><clipPath id="f9fb2ee5e1"><path d="M 9.460938 81.390625 L 123.4375 -16.125 L 175.121094 44.28125 L 61.144531 141.796875 Z M 9.460938 81.390625 " clip-rule="nonzero"/></clipPath><clipPath id="453389c07f"><path d="M 113 0 L 121 0 L 121 13 L 113 13 Z M 113 0 " clip-rule="nonzero"/></clipPath><clipPath id="de2815891b"><path d="M 9.460938 81.390625 L 123.4375 -16.125 L 175.121094 44.28125 L 61.144531 141.796875 Z M 9.460938 81.390625 " clip-rule="nonzero"/></clipPath><clipPath id="6de68128c6"><path d="M 9.460938 81.390625 L 123.4375 -16.125 L 175.121094 44.28125 L 61.144531 141.796875 Z M 9.460938 81.390625 " clip-rule="nonzero"/></clipPath><clipPath id="c072c81863"><path d="M 9.460938 81.390625 L 123.4375 -16.125 L 175.121094 44.28125 L 61.144531 141.796875 Z M 9.460938 81.390625 " clip-rule="nonzero"/></clipPath><clipPath id="de2dda5e51"><path d="M 138 12 L 149 12 L 149 21 L 138 21 Z M 138 12 " clip-rule="nonzero"/></clipPath><clipPath id="01dc4ca6b3"><path d="M 9.460938 81.390625 L 123.4375 -16.125 L 175.121094 44.28125 L 61.144531 141.796875 Z M 9.460938 81.390625 " clip-rule="nonzero"/></clipPath><clipPath id="8c2e0ef526"><path d="M 9.460938 81.390625 L 123.4375 -16.125 L 175.121094 44.28125 L 61.144531 141.796875 Z M 9.460938 81.390625 " clip-rule="nonzero"/></clipPath><clipPath id="0d2d940e05"><path d="M 9.460938 81.390625 L 123.4375 -16.125 L 175.121094 44.28125 L 61.144531 141.796875 Z M 9.460938 81.390625 " clip-rule="nonzero"/></clipPath><clipPath id="3c555bcd22"><path d="M 149 29 L 157 29 L 157 37 L 149 37 Z M 149 29 " clip-rule="nonzero"/></clipPath><clipPath id="5d9355145d"><path d="M 9.460938 81.390625 L 123.4375 -16.125 L 175.121094 44.28125 L 61.144531 141.796875 Z M 9.460938 81.390625 " clip-rule="nonzero"/></clipPath><clipPath id="ece9340088"><path d="M 9.460938 81.390625 L 123.4375 -16.125 L 175.121094 44.28125 L 61.144531 141.796875 Z M 9.460938 81.390625 " clip-rule="nonzero"/></clipPath><clipPath id="60d2ce6e09"><path d="M 9.460938 81.390625 L 123.4375 -16.125 L 175.121094 44.28125 L 61.144531 141.796875 Z M 9.460938 81.390625 " clip-rule="nonzero"/></clipPath><clipPath id="ee3c4ec66c"><path d="M 10 156 L 95 156 L 95 354 L 10 354 Z M 10 156 " clip-rule="nonzero"/></clipPath><clipPath id="f80601e033"><path d="M 10.003906 164.101562 L 31.53125 156.949219 L 94.476562 346.402344 L 72.949219 353.554688 Z M 10.003906 164.101562 " clip-rule="nonzero"/></clipPath><clipPath id="3fb2197ec1"><path d="M 10.003906 164.101562 L 31.53125 156.949219 L 94.453125 346.332031 L 72.925781 353.484375 Z M 10.003906 164.101562 " clip-rule="nonzero"/></clipPath><clipPath id="8472b7d131"><path d="M 71 341 L 99 341 L 99 373 L 71 373 Z M 71 341 " clip-rule="nonzero"/></clipPath><clipPath id="2cb571dda2"><path d="M 71.492188 348.875 L 92.929688 341.75 L 101.613281 367.882812 L 80.171875 375.003906 Z M 71.492188 348.875 " clip-rule="nonzero"/></clipPath><clipPath id="134687f07b"><path d="M 87.113281 372.011719 C 88.335938 372.015625 89.664062 371.84375 90.890625 371.4375 C 92.117188 371.03125 93.226562 370.429688 94.191406 369.699219 C 94.210938 369.679688 94.234375 369.671875 94.25 369.652344 C 97.84375 366.816406 99.550781 361.90625 98.089844 357.320312 L 92.917969 341.753906 L 71.492188 348.875 L 76.65625 364.429688 C 78.246094 369.011719 82.503906 371.9375 87.113281 372.011719 Z M 87.113281 372.011719 " clip-rule="nonzero"/></clipPath><clipPath id="fc49b40d27"><path d="M 5 154 L 46 154 L 46 196 L 5 196 Z M 5 154 " clip-rule="nonzero"/></clipPath><clipPath id="670d101f2e"><path d="M 0 165.003906 L 39.597656 151.636719 L 51.1875 185.96875 L 11.59375 199.335938 Z M 0 165.003906 " clip-rule="nonzero"/></clipPath><clipPath id="9c3fd8e840"><path d="M 29.699219 154.980469 L 9.898438 161.664062 L 5.789062 182.152344 L 21.476562 195.957031 L 41.277344 189.273438 L 45.386719 168.785156 Z M 29.699219 154.980469 " clip-rule="nonzero"/></clipPath><clipPath id="1409cb4c51"><path d="M 119.980469 107.527344 L 183.289062 107.527344 L 183.289062 170.835938 L 119.980469 170.835938 Z M 119.980469 107.527344 " clip-rule="nonzero"/></clipPath><clipPath id="cc0b69e92f"><path d="M 164.746094 107.527344 L 138.523438 107.527344 L 119.980469 126.070312 L 119.980469 152.296875 L 138.523438 170.835938 L 164.746094 170.835938 L 183.289062 152.296875 L 183.289062 126.070312 Z M 164.746094 107.527344 " clip-rule="nonzero"/></clipPath><clipPath id="60eb43ddae"><path d="M 139.179688 126.730469 L 164.089844 126.730469 L 164.089844 151.636719 L 139.179688 151.636719 Z M 139.179688 126.730469 " clip-rule="nonzero"/></clipPath><clipPath id="6a67222364"><path d="M 151.636719 126.730469 C 144.757812 126.730469 139.179688 132.304688 139.179688 139.183594 C 139.179688 146.0625 144.757812 151.636719 151.636719 151.636719 C 158.511719 151.636719 164.089844 146.0625 164.089844 139.183594 C 164.089844 132.304688 158.511719 126.730469 151.636719 126.730469 Z M 151.636719 126.730469 " clip-rule="nonzero"/></clipPath></defs><rect x="-37.5" width="450" fill="none" y="-37.499999" height="449.999989" fill-opacity="1"/><rect x="-37.5" width="450" fill="none" y="-37.499999" height="449.999989" fill-opacity="1"/><g clip-path="url(#3129d758dc)"><g clip-path="url(#f5dac0f1b6)"><path fill="#a63333" d="M 63.234375 45.472656 L 341.457031 45.472656 L 341.457031 323.695312 L 63.234375 323.695312 Z M 63.234375 45.472656 " fill-opacity="1" fill-rule="nonzero"/></g></g><g clip-path="url(#5fab5ffddd)"><g clip-path="url(#8e1820366c)"><path fill="#ff5757" d="M 70.558594 46.222656 L 348.78125 46.222656 L 348.78125 324.445312 L 70.558594 324.445312 Z M 70.558594 46.222656 " fill-opacity="1" fill-rule="nonzero"/></g></g><path fill="#ffffff" d="M 273.074219 185.863281 C 247.265625 185.863281 226.261719 164.878906 226.261719 139.097656 C 226.261719 113.316406 247.265625 92.339844 273.074219 92.339844 C 298.894531 92.339844 319.898438 113.316406 319.898438 139.097656 C 319.898438 164.878906 298.894531 185.863281 273.074219 185.863281 Z M 147.054688 185.863281 C 121.238281 185.863281 100.238281 164.878906 100.238281 139.097656 C 100.238281 113.316406 121.238281 92.339844 147.054688 92.339844 C 172.855469 92.339844 193.871094 113.316406 193.871094 139.097656 C 193.871094 164.878906 172.855469 185.863281 147.054688 185.863281 Z M 332.109375 132.089844 L 327.125 132.089844 C 323.667969 105.371094 300.757812 84.65625 273.074219 84.65625 C 247.652344 84.65625 226.242188 102.132812 220.246094 125.691406 C 217.460938 123.4375 213.914062 122.085938 210.058594 122.085938 C 206.210938 122.085938 202.671875 123.4375 199.890625 125.6875 C 193.894531 102.128906 172.480469 84.65625 147.054688 84.65625 C 119.371094 84.65625 96.460938 105.371094 93.003906 132.089844 L 87.195312 132.089844 C 83.308594 132.089844 80.164062 135.230469 80.164062 139.101562 C 80.164062 142.980469 83.308594 146.117188 87.195312 146.117188 L 93.007812 146.117188 C 96.46875 172.832031 119.375 193.546875 147.054688 193.546875 C 177.113281 193.546875 201.570312 169.117188 201.570312 139.097656 C 201.570312 138.816406 201.550781 138.535156 201.546875 138.25 L 201.570312 138.25 C 201.570312 133.574219 205.375 129.765625 210.058594 129.765625 C 214.757812 129.765625 218.570312 133.574219 218.570312 138.25 L 218.589844 138.25 C 218.585938 138.535156 218.570312 138.816406 218.570312 139.097656 C 218.570312 169.117188 243.019531 193.546875 273.074219 193.546875 C 300.757812 193.546875 323.660156 172.832031 327.125 146.117188 L 332.109375 146.117188 C 335.984375 146.117188 339.121094 142.980469 339.121094 139.101562 C 339.121094 135.230469 335.984375 132.089844 332.109375 132.089844 " fill-opacity="1" fill-rule="nonzero"/><g clip-path="url(#b11ee9daf1)"><path fill="#393536" d="M 273.074219 185.863281 L 273.074219 184.480469 C 260.550781 184.480469 249.199219 179.390625 240.96875 171.167969 C 232.738281 162.945312 227.644531 151.609375 227.644531 139.097656 C 227.644531 126.585938 232.738281 115.25 240.96875 107.027344 C 249.199219 98.808594 260.550781 93.726562 273.074219 93.722656 C 285.605469 93.726562 296.960938 98.808594 305.191406 107.027344 C 313.421875 115.25 318.515625 126.585938 318.515625 139.097656 C 318.515625 151.609375 313.421875 162.945312 305.191406 171.167969 C 296.957031 179.390625 285.605469 184.480469 273.074219 184.480469 L 273.074219 187.242188 C 299.660156 187.242188 321.28125 165.648438 321.285156 139.097656 C 321.28125 112.550781 299.660156 90.960938 273.074219 90.957031 C 246.5 90.960938 224.878906 112.550781 224.875 139.097656 C 224.878906 165.648438 246.5 187.242188 273.074219 187.242188 Z M 147.054688 185.863281 L 147.054688 184.480469 C 134.527344 184.480469 123.171875 179.390625 114.941406 171.167969 C 106.714844 162.945312 101.625 151.609375 101.625 139.097656 C 101.625 126.585938 106.714844 115.25 114.941406 107.027344 C 123.171875 98.808594 134.527344 93.726562 147.054688 93.722656 C 159.574219 93.726562 170.925781 98.808594 179.160156 107.027344 C 187.390625 115.25 192.484375 126.585938 192.484375 139.097656 C 192.484375 151.609375 187.390625 162.945312 179.160156 171.167969 C 170.925781 179.390625 159.574219 184.480469 147.054688 184.480469 L 147.054688 187.242188 C 173.625 187.242188 195.25 165.648438 195.253906 139.097656 C 195.25 112.550781 173.625 90.960938 147.054688 90.957031 C 120.46875 90.960938 98.855469 112.550781 98.851562 139.097656 C 98.855469 165.648438 120.46875 187.242188 147.054688 187.242188 Z M 332.109375 132.089844 L 332.109375 130.707031 L 327.125 130.707031 L 327.125 132.089844 L 328.5 131.910156 C 326.726562 118.210938 319.964844 106.046875 310.105469 97.316406 C 300.246094 88.585938 287.265625 83.273438 273.074219 83.273438 C 260.042969 83.273438 248.03125 87.757812 238.519531 95.253906 C 229.003906 102.753906 221.980469 113.269531 218.90625 125.351562 L 220.246094 125.691406 L 221.117188 124.617188 C 218.097656 122.171875 214.242188 120.703125 210.058594 120.703125 C 205.882812 120.703125 202.035156 122.171875 199.019531 124.613281 L 199.890625 125.6875 L 201.234375 125.34375 C 198.15625 113.265625 191.128906 102.75 181.617188 95.25 C 172.101562 87.753906 160.089844 83.273438 147.054688 83.273438 C 132.863281 83.273438 119.886719 88.585938 110.027344 97.316406 C 100.167969 106.046875 93.40625 118.210938 91.632812 131.910156 L 93.003906 132.089844 L 93.003906 130.707031 L 87.195312 130.707031 C 82.546875 130.707031 78.78125 134.464844 78.777344 139.101562 C 78.78125 143.742188 82.546875 147.5 87.195312 147.5 L 93.007812 147.5 L 93.007812 146.117188 L 91.632812 146.296875 C 93.410156 159.996094 100.171875 172.15625 110.03125 180.882812 C 119.890625 189.617188 132.867188 194.929688 147.054688 194.929688 C 177.882812 194.925781 202.949219 169.882812 202.953125 139.097656 C 202.953125 138.757812 202.933594 138.46875 202.929688 138.230469 L 201.546875 138.25 L 201.546875 139.632812 L 202.953125 139.632812 L 202.953125 138.25 C 202.953125 136.292969 203.75 134.523438 205.035156 133.234375 C 206.328125 131.941406 208.097656 131.148438 210.058594 131.148438 C 212.027344 131.148438 213.800781 131.945312 215.097656 133.234375 C 216.390625 134.523438 217.183594 136.292969 217.183594 138.25 L 217.183594 139.632812 L 218.589844 139.632812 L 218.589844 138.25 L 217.207031 138.230469 C 217.203125 138.46875 217.183594 138.757812 217.183594 139.097656 C 217.1875 169.882812 242.257812 194.925781 273.074219 194.929688 C 287.265625 194.929688 300.238281 189.617188 310.097656 180.882812 C 319.957031 172.15625 326.722656 159.996094 328.496094 146.296875 L 327.125 146.117188 L 327.125 147.5 L 332.109375 147.5 C 334.421875 147.503906 336.53125 146.558594 338.046875 145.039062 C 339.5625 143.523438 340.503906 141.417969 340.503906 139.101562 C 340.503906 134.46875 336.75 130.707031 332.109375 130.707031 L 332.109375 133.46875 C 333.667969 133.46875 335.0625 134.097656 336.085938 135.117188 C 337.105469 136.140625 337.734375 137.539062 337.734375 139.101562 C 337.734375 140.664062 337.105469 142.0625 336.085938 143.085938 C 335.0625 144.109375 333.667969 144.734375 332.109375 144.734375 L 325.90625 144.734375 L 325.75 145.941406 C 324.0625 158.957031 317.640625 170.511719 308.261719 178.816406 C 298.882812 187.121094 286.566406 192.164062 273.074219 192.164062 C 258.429688 192.164062 245.15625 186.214844 235.53125 176.601562 C 225.910156 166.988281 219.953125 153.730469 219.953125 139.097656 C 219.953125 138.871094 219.96875 138.597656 219.976562 138.269531 L 219.996094 136.867188 L 218.570312 136.867188 L 218.570312 138.25 L 219.953125 138.25 C 219.953125 132.808594 215.523438 128.386719 210.058594 128.382812 C 204.605469 128.386719 200.1875 132.8125 200.183594 138.25 L 201.570312 138.25 L 201.570312 136.867188 L 200.144531 136.867188 L 200.164062 138.269531 C 200.167969 138.597656 200.183594 138.871094 200.183594 139.097656 C 200.183594 153.730469 194.230469 166.988281 184.605469 176.601562 C 174.980469 186.214844 161.707031 192.164062 147.054688 192.164062 C 133.5625 192.164062 121.25 187.121094 111.867188 178.816406 C 102.492188 170.511719 96.066406 158.957031 94.382812 145.941406 L 94.226562 144.734375 L 87.195312 144.734375 C 85.628906 144.734375 84.226562 144.109375 83.199219 143.085938 C 82.179688 142.0625 81.550781 140.664062 81.546875 139.101562 C 81.550781 137.539062 82.179688 136.144531 83.199219 135.121094 C 84.226562 134.101562 85.628906 133.46875 87.195312 133.46875 L 94.226562 133.46875 L 94.378906 132.261719 C 96.0625 119.246094 102.488281 107.691406 111.863281 99.386719 C 121.242188 91.082031 133.558594 86.039062 147.054688 86.039062 C 159.449219 86.039062 170.851562 90.292969 179.898438 97.421875 C 188.949219 104.550781 195.628906 114.550781 198.546875 126.027344 L 199.082031 128.117188 L 200.761719 126.757812 C 203.308594 124.703125 206.535156 123.46875 210.058594 123.46875 C 213.589844 123.46875 216.824219 124.703125 219.371094 126.765625 L 221.054688 128.125 L 221.585938 126.03125 C 224.507812 114.554688 231.1875 104.554688 240.234375 97.425781 C 249.28125 90.292969 260.683594 86.039062 273.074219 86.039062 C 286.570312 86.039062 298.886719 91.082031 308.265625 99.386719 C 317.644531 107.691406 324.070312 119.246094 325.75 132.261719 L 325.90625 133.46875 L 332.109375 133.46875 L 332.109375 132.089844 " fill-opacity="1" fill-rule="nonzero"/></g><g clip-path="url(#7c310190c5)"><g clip-path="url(#e24f9481dc)"><path fill="#ffffff" d="M 236.578125 107.527344 L 299.886719 107.527344 L 299.886719 170.835938 L 236.578125 170.835938 Z M 236.578125 107.527344 " fill-opacity="1" fill-rule="nonzero"/></g></g><g clip-path="url(#a95f314ab9)"><g clip-path="url(#01820d986a)"><path fill="#000000" d="M 255.777344 126.730469 L 280.6875 126.730469 L 280.6875 151.636719 L 255.777344 151.636719 Z M 255.777344 126.730469 " fill-opacity="1" fill-rule="nonzero"/></g></g><g clip-path="url(#f83a4160c7)"><g clip-path="url(#847e7f4539)"><path fill="#ffffff" d="M 266.53125 250.632812 L 161.808594 250.632812 L 161.808594 195.46875 L 266.53125 195.46875 Z M 266.53125 250.632812 " fill-opacity="1" fill-rule="nonzero"/></g></g><g clip-path="url(#0b88d6511e)"><g clip-path="url(#6666311103)"><path fill="#ff5757" d="M 140.875 289.117188 L 183.289062 289.117188 L 183.289062 361.183594 L 140.875 361.183594 Z M 140.875 289.117188 " fill-opacity="1" fill-rule="nonzero"/></g></g><g clip-path="url(#b080d589d3)"><g clip-path="url(#db6b41767b)"><path fill="#ff5757" d="M 224.125 297.710938 L 266.539062 297.710938 L 266.539062 361.164062 L 224.125 361.164062 Z M 224.125 297.710938 " fill-opacity="1" fill-rule="nonzero"/></g></g><g clip-path="url(#ebaff2baa1)"><g clip-path="url(#a182e896d4)"><path fill="#ffffff" d="M 149.628906 329.441406 L 192.046875 329.441406 L 192.046875 360.828125 L 149.628906 360.828125 Z M 149.628906 329.441406 " fill-opacity="1" fill-rule="nonzero"/></g></g><g clip-path="url(#1c326cd2e9)"><g clip-path="url(#ef8bda9558)"><path fill="#ffffff" d="M 236.578125 329.789062 L 278.996094 329.789062 L 278.996094 361.175781 L 236.578125 361.175781 Z M 236.578125 329.789062 " fill-opacity="1" fill-rule="nonzero"/></g></g><g clip-path="url(#9d08b355dd)"><g clip-path="url(#70179f30ea)"><g clip-path="url(#fb7d9cbb1f)"><path fill="#a63333" d="M 25.589844 224.90625 L 83.203125 178.839844 L 92.253906 190.160156 L 34.640625 236.226562 Z M 25.589844 224.90625 " fill-opacity="1" fill-rule="nonzero"/></g></g></g><g clip-path="url(#6e0cbe5327)"><g clip-path="url(#afa0f773de)"><g clip-path="url(#9fd5d4c810)"><g clip-path="url(#17b6622080)"><path fill="#fccb1e" d="M 145.0625 65.933594 C 125.875 78.011719 102.933594 97.015625 89.054688 114.945312 C 80.472656 105.101562 70.027344 97.09375 59.660156 89.15625 C 71.457031 89.523438 83.300781 88.328125 94.777344 85.605469 C 95.003906 73.878906 92.8125 61.199219 89.941406 51.292969 C 99.28125 55.660156 111.847656 60.191406 121.109375 62.828125 C 122.617188 51.503906 122.769531 41.183594 124.015625 31.375 C 130.261719 46.011719 137.292969 56.851562 145.160156 66.304688 " fill-opacity="1" fill-rule="nonzero"/></g></g></g></g><g clip-path="url(#76f55f23fe)"><g clip-path="url(#92ca87f07e)"><g clip-path="url(#9e4d631009)"><g clip-path="url(#7914815d4f)"><path fill="#100f0d" d="M 144.191406 64.078125 C 128.910156 73.953125 114.457031 85.097656 101.539062 97.945312 C 97.292969 102.164062 92.351562 111.164062 86.171875 108.839844 C 87.0625 109.175781 75.503906 99.074219 76.171875 99.644531 C 71.195312 95.402344 65.984375 91.445312 60.800781 87.460938 C 60.371094 88.707031 59.9375 89.953125 59.503906 91.199219 C 71.660156 91.304688 83.226562 90.167969 95.144531 87.621094 C 95.964844 87.445312 96.828125 86.683594 96.816406 85.769531 C 96.75 80.824219 96.769531 78.273438 96.277344 73.335938 C 96.121094 71.796875 92.679688 57.144531 93.324219 56.097656 C 94.09375 54.851562 117.535156 63.886719 120.441406 64.761719 C 121.734375 65.152344 122.992188 64.339844 123.152344 62.992188 C 124.375 52.527344 124.90625 42.007812 126.058594 31.535156 C 124.757812 31.773438 123.460938 32.007812 122.164062 32.242188 C 127.957031 45.09375 134.796875 56.640625 143.609375 67.632812 C 145.257812 69.691406 148.363281 67.03125 146.714844 64.976562 C 138.164062 54.3125 131.472656 42.949219 125.867188 30.507812 C 125 28.585938 122.191406 29.238281 121.976562 31.214844 C 121.363281 36.800781 122.628906 55.160156 118.3125 58.257812 C 113.550781 61.679688 95.695312 51.628906 90.609375 49.359375 C 89.25 48.753906 87.546875 50.226562 87.925781 51.65625 C 90.164062 60.089844 94.210938 71.234375 90.445312 79.441406 C 87.386719 86.113281 86.992188 85.34375 79.898438 86.164062 C 73.226562 86.9375 66.53125 87.175781 59.816406 87.117188 C 57.753906 87.097656 56.855469 89.578125 58.515625 90.851562 C 68.78125 98.742188 78.664062 106.761719 87.5 116.277344 C 88.464844 117.3125 89.898438 117.148438 90.75 116.09375 C 106.167969 96.964844 125.355469 81.085938 145.933594 67.785156 C 148.113281 66.375 146.394531 62.65625 144.191406 64.078125 " fill-opacity="1" fill-rule="nonzero"/></g></g></g></g><g clip-path="url(#6569c09aaf)"><g clip-path="url(#b238f5819b)"><g clip-path="url(#652a233f7d)"><g clip-path="url(#ceb615c440)"><path fill="#faf783" d="M 90.816406 53.34375 C 92.917969 52.082031 94.363281 49.636719 94.097656 47.195312 C 93.835938 44.753906 91.648438 42.558594 89.195312 42.609375 C 88.054688 42.632812 86.957031 43.101562 86.035156 43.777344 C 82.972656 46.019531 82.0625 50.730469 84.078125 53.964844 C 84.398438 54.480469 84.800781 54.976562 85.34375 55.242188 C 86.148438 55.632812 87.101562 55.46875 87.957031 55.214844 C 89.742188 54.683594 91.421875 53.792969 92.863281 52.609375 " fill-opacity="1" fill-rule="nonzero"/></g></g></g></g><g clip-path="url(#2a355e5e9f)"><g clip-path="url(#0cce95c289)"><g clip-path="url(#1d9b1ca36b)"><g clip-path="url(#17b6d96bc5)"><path fill="#100f0d" d="M 91.816406 54.515625 C 95.230469 52.21875 96.96875 47.519531 94.421875 43.914062 C 91.917969 40.371094 87.289062 40.363281 84.28125 43.261719 C 81.316406 46.125 80.570312 51.039062 82.6875 54.617188 C 85.328125 59.070312 90.785156 56.15625 93.863281 53.78125 C 95.425781 52.574219 93.425781 50.242188 91.867188 51.445312 C 90.195312 52.734375 86.28125 55.386719 85.007812 52.421875 C 84.058594 50.210938 84.578125 47.445312 86.203125 45.699219 C 87.941406 43.832031 90.867188 43.558594 92.179688 46.089844 C 93.402344 48.453125 91.761719 50.875 89.820312 52.179688 C 88.183594 53.277344 90.195312 55.601562 91.816406 54.515625 " fill-opacity="1" fill-rule="nonzero"/></g></g></g></g><g clip-path="url(#c8f34de0dc)"><g clip-path="url(#84a1c0705e)"><g clip-path="url(#04dd84e47d)"><g clip-path="url(#a9f9a8a1b4)"><path fill="#faf783" d="M 122.703125 32.105469 C 123.808594 31.96875 124.894531 31.691406 125.929688 31.277344 C 127.882812 30.5 129.730469 29.117188 130.410156 27.125 C 131.089844 25.132812 130.164062 22.542969 128.144531 21.941406 C 127.46875 21.742188 126.746094 21.773438 126.042969 21.832031 C 124.121094 21.992188 122.089844 22.410156 120.703125 23.75 C 120.050781 24.378906 119.582031 25.179688 119.199219 26.003906 C 118.757812 26.949219 118.414062 28.019531 118.671875 29.03125 C 119.003906 30.320312 120.277344 31.210938 121.59375 31.429688 C 122.902344 31.652344 124.246094 31.320312 125.5 30.882812 " fill-opacity="1" fill-rule="nonzero"/></g></g></g></g><g clip-path="url(#f088c5d585)"><g clip-path="url(#be2f002283)"><g clip-path="url(#e7038ba248)"><g clip-path="url(#ab086c7ea7)"><path fill="#100f0d" d="M 122.976562 33.617188 C 126.976562 32.992188 131.941406 30.664062 132.160156 26 C 132.378906 21.304688 128.246094 19.800781 124.316406 20.5 C 120.539062 21.171875 116.871094 24.324219 117.066406 28.492188 C 117.292969 33.308594 122.773438 33.386719 126.152344 32.269531 C 128.027344 31.652344 126.699219 28.878906 124.847656 29.488281 C 122.226562 30.355469 118.9375 29.632812 120.777344 26.25 C 121.804688 24.367188 123.515625 23.652344 125.59375 23.417969 C 128.1875 23.121094 130.148438 24.992188 128.523438 27.5 C 127.226562 29.503906 124.636719 30.25 122.425781 30.59375 C 120.472656 30.898438 121.027344 33.921875 122.976562 33.617188 " fill-opacity="1" fill-rule="nonzero"/></g></g></g></g><g clip-path="url(#3205da659e)"><g clip-path="url(#d9e47985cc)"><g clip-path="url(#d597a6281f)"><g clip-path="url(#3118132093)"><path fill="#faf783" d="M 60.566406 89.476562 C 61.390625 87.152344 60.988281 84.425781 59.527344 82.4375 C 59.195312 81.984375 58.800781 81.558594 58.289062 81.335938 C 57.871094 81.152344 57.398438 81.121094 56.941406 81.164062 C 55.105469 81.339844 53.582031 82.71875 52.65625 84.3125 C 51.988281 85.457031 51.558594 86.746094 51.40625 88.066406 C 51.28125 89.128906 51.34375 90.238281 51.78125 91.214844 C 52.222656 92.191406 53.082031 93.019531 54.132812 93.226562 C 55.183594 93.433594 56.265625 93.011719 57.148438 92.40625 C 59.136719 91.046875 60.390625 88.679688 60.402344 86.269531 " fill-opacity="1" fill-rule="nonzero"/></g></g></g></g><g clip-path="url(#2b1feed92c)"><g clip-path="url(#cdb64f25fc)"><g clip-path="url(#5c64fde2c2)"><g clip-path="url(#3d9779c07c)"><path fill="#100f0d" d="M 62.019531 89.980469 C 62.988281 86.757812 62.46875 81.347656 58.789062 79.886719 C 54.652344 78.242188 51.054688 82.9375 50.175781 86.386719 C 49.3125 89.765625 50.304688 94.730469 54.648438 94.808594 C 58.929688 94.886719 61.722656 90.140625 61.933594 86.390625 C 62.042969 84.414062 58.984375 84.171875 58.875 86.148438 C 58.761719 88.164062 57.863281 90.390625 55.945312 91.355469 C 52.671875 92.996094 52.671875 88.523438 53.296875 86.632812 C 53.824219 85.027344 56.035156 81.355469 58.183594 83.214844 C 59.683594 84.507812 59.625 87.289062 59.117188 88.972656 C 58.546875 90.855469 61.445312 91.878906 62.019531 89.980469 " fill-opacity="1" fill-rule="nonzero"/></g></g></g></g><g clip-path="url(#f22d7b9d91)"><g clip-path="url(#1fe3702116)"><g clip-path="url(#3735b8705f)"><g clip-path="url(#aebbea788c)"><path fill="#100f0d" d="M 52.292969 106.195312 C 48.28125 108.515625 44.265625 110.832031 40.25 113.152344 C 38.550781 114.132812 39.847656 116.917969 41.558594 115.933594 C 45.574219 113.613281 49.585938 111.296875 53.601562 108.976562 C 55.300781 107.996094 54.003906 105.207031 52.292969 106.195312 " fill-opacity="1" fill-rule="nonzero"/></g></g></g></g><g clip-path="url(#120e03cf7a)"><g clip-path="url(#a25b1d9abd)"><g clip-path="url(#a43dffeb83)"><g clip-path="url(#318121c6d0)"><path fill="#100f0d" d="M 41.921875 82.953125 C 38.101562 82.089844 34.382812 82.269531 30.667969 83.488281 C 28.792969 84.101562 30.121094 86.875 31.972656 86.269531 C 34.855469 85.324219 37.960938 85.183594 40.917969 85.851562 C 42.824219 86.28125 43.851562 83.390625 41.921875 82.953125 " fill-opacity="1" fill-rule="nonzero"/></g></g></g></g><g clip-path="url(#b0f5f81535)"><g clip-path="url(#d7063da4ac)"><g clip-path="url(#a447f4d0a3)"><g clip-path="url(#7a75c5593a)"><path fill="#100f0d" d="M 63.066406 55.148438 C 60.394531 52.542969 57.640625 50.023438 54.808594 47.585938 C 53.316406 46.296875 51.609375 48.847656 53.09375 50.125 C 55.714844 52.386719 58.257812 54.726562 60.738281 57.140625 C 62.140625 58.511719 64.484375 56.53125 63.066406 55.148438 " fill-opacity="1" fill-rule="nonzero"/></g></g></g></g><g clip-path="url(#90f7ecb441)"><g clip-path="url(#2106572fe7)"><g clip-path="url(#da5dbfbfe3)"><g clip-path="url(#f9fb2ee5e1)"><path fill="#100f0d" d="M 91.519531 27.910156 C 89.535156 25.164062 87.824219 22.273438 86.347656 19.226562 C 85.484375 17.445312 82.707031 18.75 83.570312 20.527344 C 85.164062 23.824219 87.042969 26.9375 89.1875 29.902344 C 90.347656 31.503906 92.671875 29.5 91.519531 27.910156 " fill-opacity="1" fill-rule="nonzero"/></g></g></g></g><g clip-path="url(#453389c07f)"><g clip-path="url(#de2815891b)"><g clip-path="url(#6de68128c6)"><g clip-path="url(#c072c81863)"><path fill="#100f0d" d="M 116.289062 11.753906 C 117.5625 8.757812 118.832031 5.757812 120.101562 2.761719 C 120.875 0.945312 117.96875 -0.0625 117.199219 1.753906 C 115.929688 4.75 114.660156 7.746094 113.386719 10.742188 C 112.617188 12.558594 115.519531 13.566406 116.289062 11.753906 " fill-opacity="1" fill-rule="nonzero"/></g></g></g></g><g clip-path="url(#de2dda5e51)"><g clip-path="url(#01dc4ca6b3)"><g clip-path="url(#8c2e0ef526)"><g clip-path="url(#0d2d940e05)"><path fill="#100f0d" d="M 141.335938 20.421875 C 143.40625 18.648438 145.480469 16.875 147.550781 15.101562 C 149.050781 13.820312 147.054688 11.480469 145.554688 12.765625 C 143.480469 14.539062 141.410156 16.3125 139.335938 18.085938 C 137.835938 19.367188 139.832031 21.707031 141.335938 20.421875 " fill-opacity="1" fill-rule="nonzero"/></g></g></g></g><g clip-path="url(#3c555bcd22)"><g clip-path="url(#5d9355145d)"><g clip-path="url(#ece9340088)"><g clip-path="url(#60d2ce6e09)"><path fill="#100f0d" d="M 152.589844 36.300781 C 153.917969 34.78125 155.25 33.265625 156.585938 31.746094 C 157.878906 30.269531 155.328125 28.558594 154.039062 30.023438 C 152.703125 31.542969 151.375 33.0625 150.042969 34.578125 C 148.746094 36.054688 151.300781 37.765625 152.589844 36.300781 " fill-opacity="1" fill-rule="nonzero"/></g></g></g></g><g clip-path="url(#ee3c4ec66c)"><g clip-path="url(#f80601e033)"><g clip-path="url(#3fb2197ec1)"><path fill="#a63333" d="M 10.003906 164.101562 L 31.53125 156.949219 L 94.449219 346.320312 L 72.921875 353.472656 Z M 10.003906 164.101562 " fill-opacity="1" fill-rule="nonzero"/></g></g></g><g clip-path="url(#8472b7d131)"><g clip-path="url(#2cb571dda2)"><g clip-path="url(#134687f07b)"><path fill="#a63333" d="M 71.492188 348.875 L 92.929688 341.75 L 101.613281 367.882812 L 80.171875 375.003906 Z M 71.492188 348.875 " fill-opacity="1" fill-rule="nonzero"/></g></g></g><g clip-path="url(#fc49b40d27)"><g clip-path="url(#670d101f2e)"><g clip-path="url(#9c3fd8e840)"><path fill="#ffde59" d="M 0 165.003906 L 39.597656 151.636719 L 51.1875 185.96875 L 11.59375 199.335938 Z M 0 165.003906 " fill-opacity="1" fill-rule="nonzero"/></g></g></g><g clip-path="url(#1409cb4c51)"><g clip-path="url(#cc0b69e92f)"><path fill="#ffffff" d="M 119.980469 107.527344 L 183.289062 107.527344 L 183.289062 170.835938 L 119.980469 170.835938 Z M 119.980469 107.527344 " fill-opacity="1" fill-rule="nonzero"/></g></g><g clip-path="url(#60eb43ddae)"><g clip-path="url(#6a67222364)"><path fill="#000000" d="M 139.179688 126.730469 L 164.089844 126.730469 L 164.089844 151.636719 L 139.179688 151.636719 Z M 139.179688 126.730469 " fill-opacity="1" fill-rule="nonzero"/></g></g></svg>